<svg xmlns="http://www.w3.org/2000/svg" viewBox="0 0 1024 1024" style="fill: #fff;">
  <path d="M832 192h-64V128c0-17.7-14.3-32-32-32s-32 14.3-32 32v64H320V128c0-17.7-14.3-32-32-32s-32 14.3-32 32v64h-64c-53 0-96 43-96 96v576c0 53 43 96 96 96h640c53 0 96-43 96-96V288c0-53-43-96-96-96zm32 672c0 17.7-14.3 32-32 32H192c-17.7 0-32-14.3-32-32V384h704v480zm0-544H160v-32c0-17.7 14.3-32 32-32h64v32c0 17.7 14.3 32 32 32s32-14.3 32-32v-32h384v32c0 17.7 14.3 32 32 32s32-14.3 32-32v-32h64c17.7 0 32 14.3 32 32v32z"/>
  <path d="M288 512h96v96h-96zm160 0h96v96h-96zm160 0h96v96h-96zM288 672h96v96h-96zm160 0h96v96h-96zm160 0h96v96h-96z"/>
</svg>

