<svg xmlns="http://www.w3.org/2000/svg" width="47" height="47.001"><path d="M39.524 0H7.478c-1.18 0-2.136.957-2.136 2.137v42.727c0 1.18.957 2.137 2.136 2.137h32.046c1.18 0 2.136-.957 2.136-2.137V2.137C41.66.957 40.704 0 39.524 0zm-2.137 4.272v6.409H9.614V4.272h27.773zM9.614 42.729V14.954h27.773v27.772H9.614v.003z"/><path d="M17.253 16.844h-4.435c-.59 0-1.068.479-1.068 1.068v4.438c0 .59.479 1.068 1.068 1.068h4.435c.59 0 1.068-.479 1.068-1.068v-4.438c.001-.591-.476-1.068-1.068-1.068zM25.717 16.844h-4.434c-.59 0-1.068.479-1.068 1.068v4.438c0 .59.478 1.068 1.068 1.068h4.434c.59 0 1.068-.479 1.068-1.068v-4.438c.001-.591-.478-1.068-1.068-1.068zM34.182 16.844h-4.435c-.59 0-1.067.479-1.067 1.068v4.438c0 .59.478 1.068 1.067 1.068h4.435c.59 0 1.068-.479 1.068-1.068v-4.438c0-.591-.478-1.068-1.068-1.068zM17.253 25.555h-4.435c-.59 0-1.068.478-1.068 1.067v4.438c0 .59.479 1.067 1.068 1.067h4.435c.59 0 1.068-.478 1.068-1.067v-4.438c.001-.591-.476-1.067-1.068-1.067zM25.717 25.555h-4.434c-.59 0-1.068.478-1.068 1.067v4.438c0 .59.478 1.067 1.068 1.067h4.434c.59 0 1.068-.478 1.068-1.067v-4.438c.001-.591-.478-1.067-1.068-1.067zM17.253 34.266h-4.435c-.59 0-1.068.478-1.068 1.066v4.438c0 .592.479 1.068 1.068 1.068h4.435c.59 0 1.068-.479 1.068-1.068v-4.438c.001-.59-.476-1.066-1.068-1.066zM25.717 34.266h-4.434c-.59 0-1.068.478-1.068 1.066v4.438c0 .592.478 1.068 1.068 1.068h4.434c.59 0 1.068-.479 1.068-1.068v-4.438c.001-.59-.478-1.066-1.068-1.066zM34.182 25.555h-4.435c-.59 0-1.067.478-1.067 1.067V39.77c0 .592.478 1.068 1.067 1.068h4.435c.59 0 1.068-.479 1.068-1.068V26.622c0-.591-.478-1.067-1.068-1.067z"/></svg>