<svg id="Layer_1" style="enable-background:new 0 0 1024 1024; fill: #fff;" version="1.1" viewBox="80.21966552734375 66.64103698730469 863.4671630859375 900.8588256835938" xml:space="preserve" xmlns="http://www.w3.org/2000/svg" xmlns:xlink="http://www.w3.org/1999/xlink"><g id="XMLID_16_"><path d="M337.9,100.1L321.8,112l-16.1,11.9L128.5,254.6l-16.1,11.9l-16.1,11.9c-27-36.6-19.2-88.3,17.4-115.2   l108.9-80.4C259.2,55.7,310.9,63.5,337.9,100.1z" id="XMLID_428_"></path><path d="M880.9,400c-20.6-48.6-50-92.3-87.5-129.8c-37.5-37.5-81.2-66.9-129.8-87.5   c-50.4-21.3-103.8-32.1-159-32.1c-0.4,0-0.8,0-1.2,0c-55,0.2-108.3,11-158.5,32.4c-48.5,20.6-92.1,50.1-129.5,87.6   c-37.4,37.5-66.8,81.1-87.3,129.7c-21.2,50.3-32,103.7-32,158.8c0,88.5,27.9,172.8,80.6,243.6c18,24.2,38.7,46.4,61.5,66   c74,63.7,168.6,98.8,266.4,98.8c55.1,0,108.6-10.8,159-32.1c48.6-20.6,92.3-50,129.8-87.5c37.5-37.5,67-81.2,87.5-129.8   c21.3-50.4,32.1-103.8,32.1-159S902.2,450.3,880.9,400z M678.9,761.5L484,566.9V343.5h40v206.8l183.2,182.8L678.9,761.5z" id="XMLID_439_"></path><path d="M927.6,278.4l-16.1-11.9l-16.1-11.9L718.3,123.8L702.2,112l-16.1-11.9c27-36.6,78.7-44.3,115.3-17.4   l108.9,80.4C946.8,190.1,954.6,241.8,927.6,278.4z" id="XMLID_426_"></path></g><g id="XMLID_1_"></g><g id="XMLID_2_"></g><g id="XMLID_3_"></g><g id="XMLID_4_"></g><g id="XMLID_5_"></g></svg>